<svg xmlns="http://www.w3.org/2000/svg" width="347" height="134" viewBox="0 0 347 134">
<title>primer logo</title>

<g transform="translate(24,24) scale(1.35)">
<path d="M16,12 L48,12 Q52,12 52,16 L52,30 Q52,45 32,57 Q12,45 12,30 L12,16 Q12,12 16,12 Z" fill="#35E0A1"/>
<path d="M32,20 L32,34" fill="none" stroke="#08362A" stroke-width="3.2" stroke-linecap="round"/>
<path d="M26,29 L32,35 L38,29" fill="none" stroke="#08362A" stroke-width="3.2" stroke-linecap="round" stroke-linejoin="round"/>
<path d="M23,41 L41,41" fill="none" stroke="#08362A" stroke-width="3.2" stroke-linecap="round"/>
</g>
<g transform="translate(132.4,86.92) scale(0.058,-0.058)" fill="#35E0A1">
<path transform="translate(0,0)" d="M381 560Q453 560 512.5 524.5Q572 489 606.0 425.0Q640 361 640 278Q640 195 606.0 129.5Q572 64 512.5 27.5Q453 -9 381 -9Q318 -9 269.0 16.5Q220 42 189 80V-262H75V551H189V470Q218 508 268.0 534.0Q318 560 381 560ZM356 461Q313 461 274.5 439.0Q236 417 212.5 375.0Q189 333 189 276Q189 219 212.5 176.5Q236 134 274.5 112.0Q313 90 356 90Q400 90 438.5 112.5Q477 135 500.5 178.0Q524 221 524 278Q524 335 500.5 376.5Q477 418 438.5 439.5Q400 461 356 461Z"/>
<path transform="translate(663,0)" d="M354 560V442H325Q258 442 223.5 408.0Q189 374 189 290V0H75V551H189V471Q214 513 255.5 536.5Q297 560 354 560Z"/>
<path transform="translate(1032,0)" d="M60 697Q60 728 81.0 749.0Q102 770 133 770Q163 770 184.0 749.0Q205 728 205 697Q205 666 184.0 645.0Q163 624 133 624Q102 624 81.0 645.0Q60 666 60 697ZM189 551V0H75V551Z"/>
<path transform="translate(1281,0)" d="M969 325V0H856V308Q856 382 819.0 421.5Q782 461 718 461Q654 461 616.5 421.5Q579 382 579 308V0H466V308Q466 382 429.0 421.5Q392 461 328 461Q264 461 226.5 421.5Q189 382 189 308V0H75V551H189V488Q217 522 260.0 541.0Q303 560 352 560Q418 560 470.0 532.0Q522 504 550 451Q575 501 628.0 530.5Q681 560 742 560Q807 560 858.5 533.0Q910 506 939.5 453.0Q969 400 969 325Z"/>
<path transform="translate(2305,0)" d="M576 233H155Q160 167 204.0 127.0Q248 87 312 87Q404 87 442 164H565Q540 88 474.5 39.5Q409 -9 312 -9Q233 -9 170.5 26.5Q108 62 72.5 126.5Q37 191 37 276Q37 361 71.5 425.5Q106 490 168.5 525.0Q231 560 312 560Q390 560 451.0 526.0Q512 492 546.0 430.5Q580 369 580 289Q580 258 576 233ZM461 325Q460 388 416.0 426.0Q372 464 307 464Q248 464 206.0 426.5Q164 389 156 325Z"/>
<path transform="translate(2907,0)" d="M354 560V442H325Q258 442 223.5 408.0Q189 374 189 290V0H75V551H189V471Q214 513 255.5 536.5Q297 560 354 560Z"/>
</g>
</svg>